Coordinates
version=1
nRows=17
nColumns=38
inDegrees=no

Units are S.I. units (second, meters, Newtons, ...)
If the header above contains a line with 'inDegrees', this indicates whether rotational values are in degrees (yes) or radians (no).

endheader
time	pelvis_tilt	pelvis_list	pelvis_rotation	pelvis_tx	pelvis_ty	pelvis_tz	hip_flexion_r	hip_adduction_r	hip_rotation_r	knee_angle_r	ankle_angle_r	subtalar_angle_r	mtp_angle_r	hip_flexion_l	hip_adduction_l	hip_rotation_l	knee_angle_l	ankle_angle_l	subtalar_angle_l	mtp_angle_l	lumbar_extension	lumbar_bending	lumbar_rotation	arm_flex_r	arm_add_r	arm_rot_r	elbow_flex_r	pro_sup_r	wrist_flex_r	wrist_dev_r	arm_flex_l	arm_add_l	arm_rot_l	elbow_flex_l	pro_sup_l	wrist_flex_l	wrist_dev_l
0.57	0.973182	1.46335	0.784734	0.577978	-0.0570791	1.0544	0.394298	-0.0368276	-0.200817	0.168188	-0.236951	0	0	-0.145042	-0.036824	-0.324931	0.160738	-0.141506	0	0	-0.285727	0.0588509	-0.0147558	-0.0876051	-0.38686	0.430248	0.645318	0.837704	0	0	0.00563043	-0.611089	0.172344	0.96311	1.36637	0	0
0.58	0.916683	1.46339	0.844499	0.57762	-0.0443484	1.05172	0.392331	-0.0369895	-0.190215	0.101609	-0.252705	0	0	-0.155212	-0.0345704	-0.32312	0.158479	-0.138256	0	0	-0.281167	0.0519484	-0.0156295	-0.0891278	-0.38421	0.430574	0.644346	0.838068	0	0	0.00234761	-0.618579	0.164846	0.975537	1.36882	0	0
0.59	0.85755	1.4633	0.906101	0.577271	-0.0313745	1.04886	0.389991	-0.0378423	-0.176521	0.0385066	-0.262717	0	0	-0.165006	-0.0320505	-0.322106	0.157699	-0.134199	0	0	-0.276171	0.0448555	-0.0160112	-0.0910028	-0.381931	0.4311	0.643496	0.838925	0	0	-0.00169963	-0.62523	0.157299	0.986363	1.37054	0	0
0.6	0.806187	1.46324	0.96023	0.576828	-0.0182391	1.04591	0.389058	-0.0390908	-0.174689	0	-0.264653	0	0	-0.174675	-0.0305263	-0.321778	0.159108	-0.132145	0	0	-0.27186	0.039166	-0.0157672	-0.0939597	-0.380802	0.43065	0.644074	0.839345	0	0	-0.00410288	-0.630686	0.152453	0.993921	1.37112	0	0
0.61	0.760106	1.46317	1.00843	0.576463	-0.00492236	1.04295	0.390619	-0.0395491	-0.183881	0	-0.261415	0	0	-0.183663	-0.0298872	-0.322011	0.163427	-0.126827	0	0	-0.268469	0.0333033	-0.0167547	-0.0944923	-0.378668	0.432086	0.642312	0.840901	0	0	-0.00984493	-0.636437	0.144565	1.00261	1.37224	0	0
0.62	0.730932	1.46305	1.04022	0.576045	0.00855818	1.0401	0.392052	-0.0379065	-0.197321	0	-0.250244	0	0	-0.192449	-0.0315281	-0.322126	0.17028	-0.123142	0	0	-0.266508	0.0300104	-0.0179927	-0.0948225	-0.377645	0.434091	0.641335	0.842785	0	0	-0.0147832	-0.640683	0.137558	1.00813	1.37311	0	0
0.63	0.708555	1.46251	1.06517	0.575685	0.0222474	1.03728	0.393024	-0.0347685	-0.21137	0	-0.238003	0	0	-0.19971	-0.0346937	-0.322302	0.180623	-0.120353	0	0	-0.264364	0.027761	-0.0191064	-0.0948331	-0.37635	0.43631	0.639262	0.844373	0	0	-0.01939	-0.644386	0.132015	1.01112	1.37312	0	0
0.64	0.692942	1.4625	1.0829	0.575273	0.036083	1.03462	0.39388	-0.0308925	-0.221838	0	-0.225548	0	0	-0.206215	-0.0386516	-0.324491	0.194183	-0.118968	0	0	-0.263277	0.0262455	-0.0198042	-0.0946623	-0.375481	0.438848	0.637467	0.846101	0	0	-0.0233459	-0.647479	0.128198	1.01177	1.37258	0	0
0.65	0.688432	1.46268	1.08918	0.574764	0.050072	1.03225	0.394659	-0.0258927	-0.229093	0	-0.21512	0	0	-0.212492	-0.0438371	-0.327678	0.210016	-0.118273	0	0	-0.263282	0.0262553	-0.0203124	-0.0938914	-0.374976	0.44158	0.635448	0.847015	0	0	-0.0267079	-0.649373	0.125498	1.00952	1.37215	0	0
0.66	0.694484	1.46386	1.08506	0.574207	0.0643203	1.03015	0.394064	-0.0205183	-0.235015	0	-0.210382	0	0	-0.219844	-0.0496442	-0.329994	0.226764	-0.119973	0	0	-0.264697	0.0272658	-0.0209804	-0.0933264	-0.374417	0.443643	0.633807	0.847726	0	0	-0.0296806	-0.650305	0.123626	1.0047	1.37157	0	0
0.67	0.711451	1.46636	1.07095	0.573478	0.0788219	1.02839	0.39178	-0.015328	-0.235009	0	-0.208199	0	0	-0.228337	-0.0557827	-0.330374	0.244195	-0.121982	0	0	-0.26808	0.0291498	-0.0223582	-0.0927397	-0.373547	0.445022	0.632024	0.848031	0	0	-0.0322508	-0.650332	0.122356	0.997963	1.37093	0	0
0.68	0.737332	1.46945	1.04756	0.572746	0.0936684	1.02678	0.387436	-0.00924412	-0.234786	0	-0.207206	0	0	-0.236408	-0.0629783	-0.33335	0.265511	-0.12533	0	0	-0.271945	0.0318668	-0.0238505	-0.0922522	-0.372752	0.447287	0.630118	0.848754	0	0	-0.035652	-0.649348	0.121103	0.989175	1.36971	0	0
0.69	0.886804	1.4501	0.888437	0.571686	0.106814	1.02846	0.404883	0.0206534	-0.279103	0	-0.230275	0	0	-0.229682	-0.0899407	-0.339446	0.291797	-0.140272	0	0	-0.274411	0.0633576	-0.00749195	-0.0716959	-0.378128	0.468067	0.604098	0.846598	0	0	-0.0241061	-0.624352	0.118476	0.955717	1.37998	0	0
0.7	0.82915	1.4724	0.964957	0.570136	0.125019	1.02392	0.375893	0.00823891	-0.236924	0	-0.231211	0	0	-0.248084	-0.0843944	-0.340544	0.316549	-0.145651	0	0	-0.273513	0.0460899	-0.0293434	-0.0914645	-0.372983	0.464139	0.617274	0.84557	0	0	-0.0436509	-0.635761	0.113759	0.958007	1.37838	0	0
0.71	0.880731	1.47698	0.917865	0.56879	0.140693	1.02296	0.365731	0.0155321	-0.226369	0	-0.246094	0	0	-0.254739	-0.0922298	-0.336747	0.344058	-0.154578	0	0	-0.279888	0.0514614	-0.0351296	-0.090522	-0.372398	0.467147	0.615071	0.84615	0	0	-0.0502978	-0.634101	0.114583	0.946214	1.37553	0	0
0.72	0.948962	1.4784	0.854531	0.567213	0.156349	1.02232	0.358705	0.0241014	-0.22067	0	-0.306339	0	0	-0.255864	-0.103731	-0.3333	0.379592	-0.187253	0	0	-0.283041	0.0611783	-0.0397919	-0.087615	-0.37353	0.4784	0.608032	0.845308	0	0	-0.0523642	-0.628855	0.121037	0.925583	1.36829	0	0
0.73	0.97732	1.47628	0.828371	0.565986	0.171975	1.02161	0.360303	0.0307861	-0.21278	0.0147196	-0.332852	0	0	-0.248273	-0.113862	-0.327312	0.421293	-0.209716	0	0	-0.281163	0.0687478	-0.0403612	-0.0856875	-0.372585	0.486626	0.598297	0.842983	0	0	-0.0532623	-0.621568	0.125579	0.903173	1.36575	0	0
